<svg version="1.1" id="Layer_1" xmlns="http://www.w3.org/2000/svg" xmlns:xlink="http://www.w3.org/1999/xlink" x="0px" y="0px"
	 width="100%" viewBox="0 0 512 512" enable-background="new 0 0 512 512" xml:space="preserve">
<path opacity="1.000000" fill="#AFAFAF" stroke="none"
	d="
M1.000000,297.468658 
	C3.209013,293.363098 3.219604,289.074127 4.481982,285.140411 
	C13.479895,257.101532 31.324623,237.174133 58.254837,225.231491 
	C64.070724,222.652344 69.953300,220.490799 76.217422,219.535980 
	C81.313484,218.759201 81.165833,214.631851 81.531563,211.226624 
	C85.274132,176.380493 98.695709,145.764816 120.992760,118.808037 
	C141.859756,93.580185 167.879150,75.753128 198.539261,64.879570 
	C222.298447,56.453419 247.110046,54.070065 272.142334,55.832714 
	C292.950897,57.297943 312.957520,62.844120 331.840118,71.712372 
	C356.534302,83.310020 377.467529,99.697937 394.714874,121.089035 
	C409.884949,139.903748 420.302094,160.888535 426.960175,183.906876 
	C427.928284,187.253815 429.815979,188.826828 432.966156,189.709946 
	C450.749451,194.695267 466.412231,203.659073 479.564789,216.480957 
	C498.078278,234.528992 509.217407,256.559570 512.886963,282.643188 
	C513.000000,292.687561 513.000000,302.375122 513.000000,312.531342 
	C511.269470,324.363647 508.106384,335.295349 503.352478,345.779572 
	C499.213684,354.907135 493.619019,363.059387 487.334534,370.815308 
	C478.867828,381.264465 468.477325,389.388550 456.945496,396.082489 
	C445.222687,402.887207 432.633179,407.823090 419.160065,409.220490 
	C393.113434,411.921967 366.936218,409.793793 340.822815,410.381989 
	C337.902405,410.447754 336.598328,409.348724 336.638031,406.301178 
	C336.746490,397.971771 336.834076,389.635559 336.602295,381.311127 
	C336.492950,377.384155 338.211090,376.588745 341.690491,376.605865 
	C363.016998,376.710571 384.354736,377.065918 405.668152,376.525421 
	C423.359070,376.076874 438.714325,369.101410 452.236938,357.629700 
	C467.243347,344.899261 475.987183,328.730621 478.981842,309.580872 
	C481.304932,294.725586 479.534424,280.154358 473.189117,266.277863 
	C461.374115,240.439819 441.269928,225.295105 413.561676,220.207260 
	C403.364166,218.334793 398.668793,211.913910 396.662201,202.537476 
	C392.026215,180.874084 382.590057,161.446060 368.677612,144.300873 
	C350.997559,122.512596 328.810303,107.163322 302.101562,98.179230 
	C287.638092,93.314095 272.753296,90.745728 257.727539,90.706635 
	C241.682800,90.664894 225.702393,93.133530 210.480896,98.796318 
	C195.298767,104.444450 181.178223,111.989006 168.467682,122.185196 
	C150.271927,136.781494 136.418732,154.539993 126.932678,175.919861 
	C118.590111,194.722534 114.506584,214.265625 114.292778,234.757278 
	C114.209923,242.697403 108.007332,249.406815 100.166733,250.340897 
	C88.984482,251.673111 77.791603,252.707321 67.703438,258.527191 
	C49.837902,268.833832 38.744690,283.728027 35.253208,304.294678 
	C32.291355,321.741547 36.455406,337.544830 46.892075,351.234467 
	C59.125435,367.280823 75.416237,376.709442 96.292244,376.668274 
	C121.618027,376.618317 146.945038,376.775421 172.268951,376.551910 
	C177.124222,376.509064 178.653122,377.971588 178.427841,382.771362 
	C178.068924,390.418945 178.216721,398.098145 178.383759,405.758911 
	C178.458466,409.185730 177.269257,410.441223 173.770660,410.429260 
	C144.946167,410.330597 116.092842,411.154358 87.305817,410.110748 
	C66.114014,409.342468 47.626469,400.140564 31.886955,385.918610 
	C16.520031,372.033234 6.605462,354.918976 2.451810,334.549286 
	C2.362627,334.111877 1.895635,333.751556 1.302443,333.177612 
	C1.000000,321.312439 1.000000,309.624878 1.000000,297.468658 
z"/>
<path opacity="1.000000" fill="#AFAFAF" stroke="none"
	d="
M204.822571,341.726440 
	C196.675980,335.593445 190.175476,327.965973 183.013260,321.022827 
	C180.189926,318.285858 182.496155,316.274170 184.428223,314.342194 
	C201.278275,297.492889 218.121872,280.637177 234.974930,263.790924 
	C238.038849,260.728241 241.035721,257.588348 244.239273,254.677475 
	C252.745865,246.948059 262.570679,247.179855 270.711090,255.325150 
	C290.619904,275.246002 310.430817,295.264984 330.402100,315.122864 
	C333.309235,318.013489 333.445587,319.920715 330.367432,322.774384 
	C324.504913,328.209290 318.864532,333.901245 313.387360,339.726685 
	C310.790344,342.488800 309.067719,342.301300 306.508606,339.684845 
	C297.536346,330.511627 288.382263,321.515533 279.241913,312.508301 
	C278.006989,311.291382 277.051880,309.535797 274.897614,309.417084 
	C273.862946,311.152893 274.377136,313.015747 274.375763,314.773804 
	C274.340179,360.439819 274.350525,406.105865 274.341400,451.771912 
	C274.340088,458.362274 274.312958,458.370422 267.757385,458.379913 
	C260.757477,458.390045 253.743942,458.116486 246.762360,458.474274 
	C241.923401,458.722290 240.542419,457.059082 240.559296,452.251190 
	C240.720749,406.252380 240.660828,360.252777 240.627060,314.253418 
	C240.625641,312.316681 241.085419,310.296570 239.715988,307.554169 
	C228.021545,319.071014 216.586044,330.332855 204.822571,341.726440 
z"/>
</svg>