<svg width="866" height="683" viewBox="0 0 866 683" fill="none" xmlns="http://www.w3.org/2000/svg">
    <path d="M420.54 655.35C554.221 655.35 662.59 645.912 662.59 634.27C662.59 622.628 554.221 613.19 420.54 613.19C286.859 613.19 178.49 622.628 178.49 634.27C178.49 645.912 286.859 655.35 420.54 655.35Z" fill="#6A4EE1"/>
    <g opacity="0.7">
        <path d="M420.54 655.35C554.221 655.35 662.59 645.912 662.59 634.27C662.59 622.628 554.221 613.19 420.54 613.19C286.859 613.19 178.49 622.628 178.49 634.27C178.49 645.912 286.859 655.35 420.54 655.35Z" fill="white"/>
    </g>
    <path d="M128 435.1C94.46 422.72 63.14 401.35 49.39 371.81C37.98 347.31 39.8 319.62 48.57 294.87C69.92 234.57 133.82 188.67 205.84 181.87C262.84 185.76 315.49 159.11 359.56 128.65C403.63 98.19 444.29 62.51 496.06 43C573.89 13.71 671.7 27.6 738.28 76.89C804.86 126.18 837.28 208.35 819.57 281.36C801.86 354.37 735.16 415.1 652.87 433.87C583.44 449.71 509.16 437.28 436.92 438.69C333 440.73 225.05 470.93 128 435.1Z" fill="#6A4EE1"/>
    <path opacity="0.7" d="M128 435.1C94.46 422.72 63.14 401.35 49.39 371.81C37.98 347.31 39.8 319.62 48.57 294.87C69.92 234.57 133.82 188.67 205.84 181.87C262.84 185.76 315.49 159.11 359.56 128.65C403.63 98.19 444.29 62.51 496.06 43C573.89 13.71 671.7 27.6 738.28 76.89C804.86 126.18 837.28 208.35 819.57 281.36C801.86 354.37 735.16 415.1 652.87 433.87C583.44 449.71 509.16 437.28 436.92 438.69C333 440.73 225.05 470.93 128 435.1Z" fill="white"/>
    <mask id="mask0_53_270" style="mask-type:luminance" maskUnits="userSpaceOnUse" x="41" y="27" width="784" height="426">
        <path d="M128 435.1C94.46 422.72 63.14 401.35 49.39 371.81C37.98 347.31 39.8 319.62 48.57 294.87C69.92 234.57 133.82 188.67 205.84 181.87C262.84 185.76 315.49 159.11 359.56 128.65C403.63 98.19 444.29 62.51 496.06 43C573.89 13.71 671.7 27.6 738.28 76.89C804.86 126.18 837.28 208.35 819.57 281.36C801.86 354.37 735.16 415.1 652.87 433.87C583.44 449.71 509.16 437.28 436.92 438.69C333 440.73 225.05 470.93 128 435.1Z" fill="white"/>
    </mask>
    <g mask="url(#mask0_53_270)">
        <path d="M417.65 415.51V344.1H459.17L460.83 353.23H505.68V415.51H417.65Z" fill="#6A4EE1"/>
        <path d="M584.57 415.51V344.1H626.09L627.75 353.23H672.59V415.51H584.57Z" fill="#6A4EE1"/>
        <path d="M415.99 282.64V211.22H457.51L459.17 220.36H504.01V282.64H415.99Z" fill="#6A4EE1"/>
        <path d="M582.91 282.64V211.22H624.43L626.09 220.36H670.93V282.64H582.91Z" fill="#6A4EE1"/>
        <path d="M415.99 147.28V75.86H457.51L459.17 85H504.01V147.28H415.99Z" fill="#6A4EE1"/>
        <path d="M155.97 414V342.58H197.5L199.16 351.72H244V414H155.97Z" fill="#6A4EE1"/>
        <path d="M154.31 281.13V209.71H195.84L197.5 218.85H242.34V281.13H154.31Z" fill="#6A4EE1"/>
        <path d="M154.31 145.77V74.35H195.84L197.5 83.48H242.34V145.77H154.31Z" fill="#6A4EE1"/>
        <path d="M582.91 147.28V75.86H624.43L626.09 85H670.93V147.28H582.91Z" fill="#6A4EE1"/>
        <g opacity="0.8">
            <path d="M417.65 415.51V344.1H459.17L460.83 353.23H505.68V415.51H417.65Z" fill="white"/>
            <path d="M584.57 415.51V344.1H626.09L627.75 353.23H672.59V415.51H584.57Z" fill="white"/>
            <path d="M415.99 282.64V211.22H457.51L459.17 220.36H504.01V282.64H415.99Z" fill="white"/>
            <path d="M582.91 282.64V211.22H624.43L626.09 220.36H670.93V282.64H582.91Z" fill="white"/>
            <path d="M415.99 147.28V75.86H457.51L459.17 85H504.01V147.28H415.99Z" fill="white"/>
            <path d="M155.97 414V342.58H197.5L199.16 351.72H244V414H155.97Z" fill="white"/>
            <path d="M154.31 281.13V209.71H195.84L197.5 218.85H242.34V281.13H154.31Z" fill="white"/>
            <path d="M154.31 145.77V74.35H195.84L197.5 83.48H242.34V145.77H154.31Z" fill="white"/>
            <path d="M582.91 147.28V75.86H624.43L626.09 85H670.93V147.28H582.91Z" fill="white"/>
        </g>
    </g>
    <path d="M191.89 213.09L191 212.85C191 212.85 191.52 210.9 192.64 207.51L193.52 207.8C192.41 211.16 191.9 213.07 191.89 213.09Z" fill="#232530"/>
    <path d="M665.66 198.21C664.4 194.76 663.06 191.31 661.66 187.96L662.52 187.6C663.91 190.97 665.25 194.43 666.52 197.89L665.66 198.21ZM197.28 197.47L196.42 197.13C197.74 193.78 199.18 190.35 200.7 186.94L201.55 187.32C200 190.71 198.6 194.13 197.28 197.47ZM657.28 177.88C655.74 174.56 654.11 171.24 652.43 168.02L653.26 167.59C654.94 170.82 656.58 174.16 658.13 177.49L657.28 177.88ZM206.28 177.36L205.44 176.94C207.07 173.67 208.8 170.38 210.57 167.16L211.39 167.6C209.6 170.81 207.88 174.1 206.26 177.36H206.28ZM647.15 158.36C645.31 155.19 643.39 152.03 641.42 148.98L642.2 148.48C644.2 151.54 646.11 154.71 647.95 157.89L647.15 158.36ZM216.89 158.04L216.1 157.56C217.99 154.42 219.98 151.28 222 148.23L222.77 148.74C220.74 151.8 218.76 154.94 216.87 158.06L216.89 158.04ZM635.26 139.87C633.14 136.87 630.92 133.94 628.67 131.07L629.4 130.5C631.66 133.37 633.88 136.35 636.01 139.34L635.26 139.87ZM229 139.7L228.25 139.16C230.4 136.16 232.64 133.21 234.9 130.34L235.63 130.92C233.39 133.78 231.16 136.73 229 139.7ZM621.64 122.61C619.25 119.85 616.77 117.12 614.25 114.47L614.92 113.83C617.45 116.49 619.92 119.24 622.34 122L621.64 122.61ZM242.64 122.42L241.93 121.82C244.33 119.03 246.81 116.27 249.31 113.6L249.99 114.24C247.5 116.89 245 119.64 242.64 122.42ZM606.49 106.69C603.85 104.17 601.12 101.69 598.37 99.27L598.98 98.57C601.74 100.98 604.48 103.49 607.13 106.02L606.49 106.69ZM257.69 106.38L257.05 105.72C259.68 103.15 262.4 100.62 265.12 98.19L265.74 98.88C263 101.3 260.32 103.83 257.69 106.38ZM589.91 92.24C587.07 89.98 584.12 87.74 581.15 85.59L581.69 84.84C584.69 87 587.64 89.24 590.49 91.51L589.91 92.24ZM274.12 91.76L273.53 91.04C276.38 88.73 279.31 86.45 282.26 84.28L282.81 85.02C279.88 87.19 277 89.46 274.12 91.76ZM572.12 79.33C569.12 77.33 565.95 75.33 562.81 73.46L563.29 72.67C566.44 74.56 569.58 76.54 572.63 78.55L572.12 79.33ZM291.81 78.7L291.29 77.93C294.29 75.93 297.47 73.93 300.61 72.01L301.09 72.81C298 74.7 294.84 76.68 291.81 78.7ZM553.24 68C550.04 66.25 546.76 64.54 543.48 62.92L543.89 62.09C547.18 63.72 550.48 65.43 553.69 67.18L553.24 68ZM310.63 67.35L310.19 66.54C313.4 64.8 316.71 63.11 320.02 61.54L320.42 62.38C317.13 63.94 313.83 65.62 310.63 67.35ZM533.52 58.24C530.2 56.76 526.78 55.32 523.38 53.95L523.73 53.09C527.14 54.46 530.56 55.91 533.9 57.39L533.52 58.24ZM330.43 57.79L330.06 56.94C333.42 55.51 336.86 54.12 340.3 52.83L340.63 53.7C337.2 55 333.77 56.37 330.43 57.79ZM513.09 50.07C509.65 48.86 506.09 47.71 502.63 46.66L502.9 45.78C506.41 46.78 509.9 47.98 513.39 49.19L513.09 50.07ZM351 50.07L350.71 49.18C354.17 48.05 357.71 46.98 361.27 45.99L361.52 46.88C358 47.87 354.45 48.94 351 50.07ZM372.17 44.15L371.96 43.24C375.5 42.41 379.13 41.64 382.74 40.94L382.92 41.85C379.32 42.55 375.7 43.32 372.17 44.15ZM492 43.76C488.46 42.88 484.85 42.07 481.27 41.36L481.45 40.45C485.04 41.17 488.67 41.98 492.22 42.86L492 43.76ZM393.75 40L393.61 39.08C397.2 38.54 400.88 38.08 404.55 37.62L404.66 38.54C401 38.94 397.33 39.44 393.75 40ZM470.45 39.48C466.85 38.94 463.18 38.48 459.55 38.09L459.64 37.16C463.29 37.55 466.98 38.02 470.59 38.57L470.45 39.48ZM415.61 37.48L415.54 36.56C419.2 36.28 422.9 36.08 426.54 35.96V36.89C423 37 419.25 37.19 415.61 37.47V37.48ZM448.61 37.18C444.98 36.97 441.28 36.84 437.61 36.79V35.86C441.28 35.86 445 36.04 448.61 36.26V37.18Z" fill="#232530"/>
    <path d="M670.86 214C670.33 212.21 669.78 210.44 669.23 208.69L670.11 208.41C670.67 210.17 671.21 211.94 671.75 213.74L670.86 214Z" fill="#232530"/>
    <path d="M257.23 237.1L244.86 236.66L240.89 302.88L257.23 237.1Z" fill="#232530"/>
    <path d="M247.07 216.35L240.89 302.88H155.25L164.08 212.82L247.07 216.35Z" fill="#E6E7E8"/>
    <path d="M194.89 157.74C194.89 157.74 260.31 166.81 281.04 171.35C281.04 171.35 292.04 125.35 295.94 108.52C295.94 108.52 234.4 101.39 216.27 91.03L194.89 157.74Z" fill="#E6E7E8"/>
    <path d="M377.56 27.55C377.56 27.55 410.56 52.16 429.38 60.55C429.38 60.55 401.52 89.7 383.38 91.64L340.62 67.64C340.62 67.64 332.31 63 330.37 44.86C330.37 44.86 352.29 46.33 377.56 27.55Z" fill="#E6E7E8"/>
    <path d="M340.63 67.71C340.63 67.71 299.32 54.3 308.44 41.87C308.44 41.87 331.59 19.41 330.37 44.87C330.37 44.86 330.58 60.13 340.63 67.71Z" fill="#D1D3D4"/>
    <path d="M471.74 73.11C471.74 73.11 527.39 55.72 545.94 83.94L573.38 52.63C573.38 52.63 515 0.449982 471.74 73.11Z" fill="#E6E7E8"/>
    <path d="M492.61 90.89C492.61 90.89 468.61 89.73 471.74 73.11C471.74 73.11 494.93 66.54 510 68.11L492.61 90.89Z" fill="#D1D3D4"/>
    <path d="M570.46 138.85C570.46 138.85 598.92 138.5 620.79 91.29C620.79 91.29 637.45 125.29 675.29 148.92C661.6 165.38 643.911 178.048 623.92 185.71C623.92 185.71 586.43 161.07 570.46 138.85Z" fill="#E6E7E8"/>
    <path d="M532.65 225.65C532.65 225.65 533.33 237.54 533.75 237.54C535.001 237.084 536.22 236.546 537.4 235.93L538.76 226.42L534.43 223.19L532.65 225.65Z" fill="#F7A48B"/>
    <path d="M531.23 179.7L531.6 187.1L534.61 185.51L533.63 180.19L531.6 179.1L531.23 179.7Z" fill="#F7A48B"/>
    <path d="M383.74 556.42L390.11 566.36L398.78 564.58L403.87 558.21L399.54 547.76L383.74 556.42Z" fill="#F9B499"/>
    <path d="M496.26 357.31C496.01 357.53 495.76 357.75 495.51 357.95C458.04 390.11 417.41 360.18 417.41 360.18C416.487 359.735 415.616 359.192 414.81 358.56C411.21 355.67 413.26 353.16 413.26 353.16C414.147 351.301 414.896 349.379 415.5 347.41C414.22 342.31 415.82 334.65 415.82 334.65C419 321.56 411 307.83 411 307.83L393.76 281.66L374.29 287.09C369.479 288.942 364.535 290.43 359.5 291.54C353.704 292.803 347.645 291.9 342.47 289C330.7 282.27 334.42 271.1 334.42 271.1C334.42 271.1 334.42 282.92 346.87 278.76C346.87 278.76 353.87 277.49 352.93 265.99L360.28 260.89L384.54 251.31C392.54 245.57 405.92 242.38 405.92 242.38C407.83 248.51 412.81 252.82 415.92 255.03C417.144 255.887 418.609 256.329 420.103 256.293C421.596 256.257 423.039 255.745 424.22 254.83C430.77 249.62 434.61 235.67 434.61 235.67L487 270.48C493.71 285.81 496.89 338.16 496.89 338.16C496.26 344.86 496.58 347.09 496.58 347.09C499.45 355.71 496.26 357.31 496.26 357.31Z" fill="#6A4EE1"/>
    <path d="M473.59 488.5C479.02 503.19 475.19 542.5 475.19 542.5C473.124 550.732 472.053 559.183 472 567.67C460.5 581.4 447.42 568.67 447.42 568.67L442.63 521.11C440.297 510.407 439.014 499.502 438.8 488.55C441.67 422.79 436.89 415.46 436.89 415.46L378.73 462.34C377.92 462.998 377.248 463.809 376.752 464.727C376.256 465.645 375.946 466.652 375.84 467.69C375.723 469.21 375.298 470.69 374.59 472.04C374.282 472.578 374.114 473.186 374.101 473.806C374.089 474.426 374.233 475.04 374.52 475.59C379.35 484.7 384.52 501.59 384.52 501.59C386.75 512.45 396.33 535.11 396.33 535.11C392.53 546.31 385.22 548.11 380.33 547.9C378.896 547.833 377.494 547.448 376.227 546.774C374.959 546.099 373.857 545.152 373 544C357 522.47 339.86 481.19 339.86 481.19C330.28 462.04 337.55 449.54 340.24 445.9C341.07 444.78 341.86 443.62 342.62 442.45C361.9 412.8 414.55 358.94 414.55 358.94L414.82 358.59C415.626 359.222 416.498 359.765 417.42 360.21C417.42 360.21 458 390.11 495.51 358C505.39 394.81 473.59 488.5 473.59 488.5Z" fill="#232530"/>
    <path opacity="0.2" d="M423.16 395.2C424.925 395.644 426.631 396.299 428.24 397.15C429.867 398.004 431.411 399.008 432.85 400.15C433.58 400.7 434.25 401.32 434.93 401.93L435.93 402.93L436.41 403.42L436.85 403.95C438.047 405.331 439.055 406.864 439.85 408.51C438.63 407.16 437.49 405.8 436.18 404.59C434.918 403.348 433.582 402.182 432.18 401.1C430.79 400 429.34 398.98 427.84 398.01C426.34 397.04 424.75 396.07 423.16 395.2Z" fill="black"/>
    <path opacity="0.2" d="M435.39 392.82C435.097 391.102 434.953 389.363 434.96 387.62C434.942 385.878 435.049 384.137 435.28 382.41C435.39 381.54 435.56 380.68 435.73 379.82C435.928 378.964 436.171 378.12 436.46 377.29C436.984 375.595 437.899 374.047 439.13 372.77C438.312 374.27 437.713 375.88 437.35 377.55C436.963 379.199 436.666 380.868 436.46 382.55C436 386 435.75 389.36 435.39 392.82Z" fill="black"/>
    <path opacity="0.2" d="M461.55 500.87C462.78 499.01 464.09 497.3 465.31 495.53C465.92 494.64 466.52 493.76 467.09 492.85C467.66 491.94 468.16 490.99 468.69 490C468.618 491.125 468.358 492.231 467.92 493.27C467.474 494.301 466.928 495.286 466.29 496.21C465.648 497.12 464.929 497.973 464.14 498.76C463.365 499.565 462.495 500.273 461.55 500.87Z" fill="black"/>
    <path d="M450.51 581.39L451.27 593.39C451.27 593.39 460.96 597.98 468.09 593.65L468.86 578.65L450.51 581.39Z" fill="#F9B499"/>
    <path d="M448.72 606.88V591.08C451.683 593.674 455.487 595.104 459.425 595.104C463.363 595.104 467.167 593.674 470.13 591.08V607.39C470.13 607.39 448.72 606.11 448.72 606.88Z" fill="#E6E7E8"/>
    <path d="M472.17 610.7C470.53 617.924 470.333 625.4 471.59 632.7C471.781 633.749 471.848 634.816 471.79 635.88C471.656 638.75 470.512 641.481 468.56 643.59C466.07 646.25 462.09 648.39 455.86 647.36C453.596 647.019 451.474 646.045 449.74 644.55C449.74 644.55 444.13 642.74 444.07 635.13C444.088 632.877 444.456 630.64 445.16 628.5C445.16 628.5 447.45 617.29 446.69 610.66C446.69 610.66 444.9 602.51 450.51 604.8C450.51 604.8 452.29 597.67 460.7 598.43C460.7 598.43 466.05 597.67 468.35 606.33C468.35 606.37 472.68 603.56 472.17 610.7Z" fill="#6A4EE1"/>
    <path d="M458.4 652C439.19 652 443.88 635.19 443.88 635.19H444.07C444.13 642.8 449.74 644.61 449.74 644.61C451.474 646.105 453.596 647.079 455.86 647.42C462.09 648.42 466.07 646.31 468.56 643.65C470.512 641.541 471.656 638.81 471.79 635.94H471.91C475 649.44 461 652 458.4 652Z" fill="#232530"/>
    <path d="M407.19 559.73L403.87 555.15C402.167 558.065 399.757 560.503 396.863 562.241C393.969 563.978 390.683 564.958 387.31 565.09L387.56 567.38C387.56 567.38 391.39 567.12 396.99 571.71C397 571.71 407.7 571.46 407.19 559.73Z" fill="#E6E7E8"/>
    <path d="M372.78 544.7C372.78 544.7 371.51 546.48 374.57 550.56L377.86 555.49C378.292 556.142 378.864 556.691 379.533 557.097C380.201 557.503 380.952 557.757 381.73 557.84C386.73 558.32 397.61 557.94 402.41 546.61C402.737 545.84 402.879 545.003 402.825 544.168C402.771 543.333 402.523 542.522 402.1 541.8L397.5 534C397.5 534 396.5 529.92 394.45 531.7L372.78 544.7Z" fill="#232530"/>
    <path opacity="0.2" d="M372.78 544.7C372.78 544.7 371.51 546.48 374.57 550.56L377.86 555.49C378.292 556.142 378.864 556.691 379.533 557.097C380.201 557.503 380.952 557.757 381.73 557.84C386.73 558.32 397.61 557.94 402.41 546.61C402.737 545.84 402.879 545.003 402.825 544.168C402.771 543.333 402.523 542.522 402.1 541.8L397.5 534C397.5 534 396.5 529.92 394.45 531.7L372.78 544.7Z" fill="black"/>
    <path d="M536.12 268.65C536.194 270.487 535.542 272.279 534.305 273.64C533.068 275 531.346 275.819 529.51 275.92L460.73 279.92C459.189 279.977 457.685 279.438 456.531 278.416C455.377 277.394 454.66 275.966 454.53 274.43L444.65 129.5C444.584 128.433 444.732 127.363 445.087 126.355C445.441 125.346 445.994 124.419 446.712 123.627C447.431 122.836 448.301 122.196 449.271 121.747C450.241 121.297 451.291 121.047 452.36 121.01L521.86 117.8C523.427 117.72 524.964 118.257 526.139 119.297C527.315 120.336 528.037 121.795 528.15 123.36L536.12 268.65Z" fill="#232530"/>
    <path d="M529.5 148.31C529.5 148.31 531.93 148.13 531.5 150.04C531.095 151.267 530.49 152.42 529.71 153.45L529.5 148.31Z" fill="#F7A48B"/>
    <path d="M334.42 271.12C334.934 269.482 335.338 267.812 335.63 266.12C335.63 266.12 336.63 280.2 349.71 269.83L352.93 265.99C352.93 265.99 355.68 280.81 342.13 280.21C342.13 280.23 334.63 279.92 334.42 271.12Z" fill="#232530"/>
    <path d="M337.11 261.94L335.63 266.14C335.388 267.802 335.789 269.494 336.752 270.871C337.714 272.248 339.166 273.206 340.81 273.55C340.81 273.55 346.53 274.55 352.93 266.01C354.954 265.177 356.93 264.232 358.85 263.18C358.85 263.18 363.95 263.36 366.48 261.54C366.641 261.428 366.772 261.278 366.863 261.104C366.954 260.93 367.001 260.736 367.001 260.54C367.001 260.344 366.954 260.15 366.863 259.976C366.772 259.802 366.641 259.652 366.48 259.54C365.03 258.54 362.01 257.23 356.91 258.22L363.08 248.34C361.704 247.637 360.18 247.27 358.635 247.27C357.09 247.27 355.566 247.637 354.19 248.34C354.19 248.34 353.45 244.88 349.01 247.85C349.01 247.85 347.77 244.14 344.56 247.85C344.56 247.85 340.36 243.15 338.63 250.56C338.63 250.56 337.4 251.56 337.89 259.21L337.11 261.94Z" fill="#F9B499"/>
    <path d="M337.85 259.23C337.85 259.23 339.58 261.7 341.56 258.98C341.56 258.98 344.56 263.18 346 258.24C346 258.24 349.21 261.7 351.93 254.53L354.15 248.36C354.15 248.36 352.15 244.65 348.97 247.87C348.97 247.87 347.24 244.41 344.52 247.87C344.52 247.87 340.32 243.17 338.59 250.58C338.59 250.58 336.86 253.55 337.85 259.23Z" fill="#F7A48B"/>
    <path d="M344.52 247.87C344.52 247.87 341.31 254.04 341.52 258.98L344.52 247.87Z" fill="#F7A48B"/>
    <path d="M346 258.24C346.401 254.637 347.416 251.13 349 247.87L346 258.24Z" fill="#F7A48B"/>
    <path d="M362.462 249.146C363.845 247.182 363.829 244.788 362.425 243.798C361.021 242.809 358.761 243.599 357.377 245.563C355.993 247.527 356.01 249.921 357.414 250.91C358.818 251.899 361.078 251.109 362.462 249.146Z" fill="#F7A48B"/>
    <path opacity="0.2" d="M362.85 277.58C362.64 276.58 362.39 275.69 362.13 274.75C361.87 273.81 361.59 272.91 361.26 272C360.93 271.09 360.56 270.22 360.15 269.35C359.712 268.487 359.221 267.652 358.68 266.85C359.413 267.516 360.046 268.284 360.56 269.13C361.058 269.981 361.48 270.874 361.82 271.8C362.495 273.653 362.843 275.608 362.85 277.58Z" fill="black"/>
    <path opacity="0.2" d="M393.79 281.66C392.067 279.575 390.662 277.246 389.62 274.75C391.343 276.835 392.748 279.164 393.79 281.66Z" fill="black"/>
    <path opacity="0.2" d="M430.49 325.58C432.53 327.382 434.755 328.961 437.13 330.29C439.489 331.614 441.946 332.754 444.48 333.7C445.76 334.13 447.02 334.62 448.33 334.95C448.99 335.13 449.63 335.34 450.33 335.5L452.33 335.95L453.33 336.18L454.33 336.35L456.33 336.72C457.68 336.94 459.04 337.07 460.4 337.3C459.03 337.3 457.65 337.36 456.27 337.3L454.21 337.12L453.21 337.03L452.21 336.86C449.485 336.455 446.805 335.785 444.21 334.86C441.612 333.884 439.128 332.631 436.8 331.12C434.403 329.638 432.27 327.765 430.49 325.58Z" fill="black"/>
    <path d="M428.12 215.09C428.12 215.09 428.33 219.87 435.19 226.09C435.19 226.09 436.61 229.89 434.65 235.68C434.65 235.68 431.04 249.85 424.04 254.95C422.829 255.811 421.381 256.274 419.895 256.274C418.409 256.274 416.961 255.811 415.75 254.95C412.8 252.88 408.41 249.06 406.31 243.55L425.86 215.91C425.86 215.91 426.46 216.13 428.12 215.09Z" fill="#F9B499"/>
    <path d="M446.6 563.73C446.6 563.73 445.15 564.73 445.32 568.46C445.46 570.928 445.46 573.402 445.32 575.87C445.17 578.32 445.54 581.29 447.97 582.41C447.97 582.41 462.49 591.41 472.38 580.72C473.288 579.729 473.772 578.423 473.73 577.08L473.57 572.51C473.54 570.945 473.661 569.382 473.93 567.84C474.013 567.034 473.922 566.22 473.663 565.452C473.405 564.684 472.984 563.981 472.43 563.39L446.6 563.73Z" fill="#232530"/>
    <path opacity="0.2" d="M446.6 563.73C446.6 563.73 445.15 564.73 445.32 568.46C445.46 570.928 445.46 573.402 445.32 575.87C445.17 578.32 445.54 581.29 447.97 582.41C447.97 582.41 462.49 591.41 472.38 580.72C473.288 579.729 473.772 578.423 473.73 577.08L473.57 572.51C473.54 570.945 473.661 569.382 473.93 567.84C474.013 567.034 473.922 566.22 473.663 565.452C473.405 564.684 472.984 563.981 472.43 563.39L446.6 563.73Z" fill="black"/>
    <path d="M387.18 575.46C387.18 575.46 382.47 569.16 386.55 567.38C386.55 567.38 390.11 566.38 396.99 571.71L397.99 575.53L391.37 577.32L387.18 575.46Z" fill="#6A4EE1"/>
    <path opacity="0.2" d="M387.18 575.46C387.18 575.46 382.47 569.16 386.55 567.38C386.55 567.38 390.11 566.38 396.99 571.71L397.99 575.53L391.37 577.32L387.18 575.46Z" fill="black"/>
    <path d="M374.62 612.58C374.62 612.58 378.39 620.13 389.86 610.19C389.86 610.19 408.21 591.59 415.86 585.98C415.86 585.98 426.86 580.12 420.7 573.75L414.59 567.38L402.35 577.57L374.62 612.58Z" fill="#232530"/>
    <path d="M382.72 611C382.72 611 373 616.7 374.15 610C374.381 608.762 374.891 607.593 375.64 606.58C380.739 599.482 384.295 591.395 386.08 582.84C386.205 582.18 386.272 581.511 386.28 580.84C386.33 578.38 386.92 571.51 392.15 571.51C392.15 571.51 408.46 573.8 407.15 559.78L414.54 567.43C410.608 572.263 407.576 577.764 405.59 583.67C403.875 588.962 401.312 593.94 398 598.41C394.3 603.29 389.11 608.55 382.72 611Z" fill="#6A4EE1"/>
    <path d="M452.83 254.59C452.83 254.59 427 239 433.15 224.34C433.15 224.34 438.44 207.34 445.78 209.65C445.78 209.65 451.36 211.41 449.3 227.86L451.07 228.74L452.83 254.59Z" fill="#F7A48B"/>
    <path d="M405.92 242.4C406.626 244.967 407.901 247.342 409.65 249.35C409.65 249.35 433.65 243.35 424.35 223.78L405.92 242.4Z" fill="#F7A48B"/>
    <path d="M415.604 243.107C425.844 238.937 429.579 224.344 423.946 210.513C418.313 196.682 405.446 188.851 395.206 193.022C384.966 197.192 381.231 211.785 386.864 225.616C392.497 239.447 405.364 247.278 415.604 243.107Z" fill="#F9B499"/>
    <path d="M384.38 213.74C384.38 213.74 376.17 214.52 375.56 206.66C375.477 205.31 375.633 203.956 376.02 202.66C377.66 196.97 384.82 178.74 409.19 177.91C409.19 177.91 427.47 178.4 427.19 196.19C427.19 196.19 426.7 202.61 428.19 205.33C428.19 205.33 414.79 208.85 412.07 203.33C411.83 202.848 411.516 202.406 411.14 202.02C409.39 200.18 404.73 196.48 399.14 201.55C399.096 201.593 399.041 201.624 398.982 201.639C398.922 201.655 398.86 201.655 398.8 201.64C398.4 201.53 397.67 200.97 398.04 198.2C398.04 198.2 393.54 207.07 385.74 205.42C385.667 205.401 385.591 205.397 385.516 205.41C385.442 205.422 385.37 205.45 385.307 205.491C385.244 205.533 385.19 205.587 385.149 205.65C385.109 205.714 385.082 205.785 385.07 205.86C384.81 207.52 384 212.72 384.38 213.74Z" fill="#232530"/>
    <path d="M425.86 215.91C428.931 215.91 431.42 212.758 431.42 208.87C431.42 204.982 428.931 201.83 425.86 201.83C422.789 201.83 420.3 204.982 420.3 208.87C420.3 212.758 422.789 215.91 425.86 215.91Z" fill="#F9B499"/>
    <path d="M445.19 234.91C445.19 234.91 448.13 233.44 449.3 227.91" stroke="#F9B499" stroke-miterlimit="10"/>
    <path d="M532.22 264.59C532.313 266.296 531.726 267.969 530.589 269.243C529.451 270.517 527.855 271.289 526.15 271.39L463 275.15C461.569 275.202 460.174 274.695 459.112 273.735C458.049 272.775 457.403 271.439 457.31 270.01L448.23 134.36C448.165 133.371 448.298 132.379 448.621 131.442C448.943 130.505 449.45 129.642 450.11 128.903C450.77 128.164 451.57 127.563 452.465 127.137C453.36 126.711 454.33 126.467 455.32 126.42L519.14 123.42C520.596 123.352 522.019 123.861 523.101 124.836C524.184 125.812 524.837 127.175 524.92 128.63L532.22 264.59Z" fill="white"/>
    <path d="M533.85 226.69C533.85 226.69 537.16 229.11 532.85 239.92C532.85 239.92 526.99 255.21 534.12 258.53C534.12 258.53 540.75 262.09 543.04 251.65C543.04 251.65 551.2 234.06 544.57 226.42L534.89 216.48L533.36 217.48L533.85 226.69Z" fill="#F9B499"/>
    <path d="M531.22 179.7C531.22 179.7 534.09 180.29 531.8 186.7C531.8 186.7 522.08 203.28 523.18 212.86C523.29 213.815 523.608 214.733 524.114 215.55C524.619 216.368 525.299 217.063 526.104 217.588C526.909 218.112 527.82 218.452 528.772 218.584C529.723 218.716 530.693 218.636 531.61 218.35C533.988 217.585 535.975 215.925 537.15 213.72L550.15 186.72C550.15 186.72 554.73 177.04 545.56 171.94L539.19 167.36C539.19 167.36 538.3 175 530.93 173.9L531.22 179.7Z" fill="#F9B499"/>
    <path d="M529.21 142.11C529.21 142.11 539.7 136.72 544.28 146.4C544.28 146.4 548.62 154.64 539.19 167.3C539.19 167.3 537.91 175.71 531.03 174.18C531.03 174.18 520.33 170.61 529.5 153.79C529.5 153.79 533.84 148.06 529.5 148.31L529.21 142.11Z" fill="#F9B499"/>
    <path d="M614.65 238.02L627.01 237.58L630.98 303.8L614.65 238.02Z" fill="#232530"/>
    <path d="M624.8 217.27L630.98 303.8H716.63L707.8 213.74L624.8 217.27Z" fill="#E6E7E8"/>
    <path d="M637.16 235.37L630.98 303.8H722.37L733.4 226.99L689.7 224.78L685.28 235.81L637.16 235.37Z" fill="#6A4EE1"/>
    <path d="M234.71 234.46L240.89 302.88H149.51L138.47 226.07L182.18 223.86L186.59 234.9L234.71 234.46Z" fill="#6A4EE1"/>
    <path d="M517.83 152.58L511.8 152.37L509.86 184.69L517.83 152.58Z" fill="#232530"/>
    <path d="M512.87 142.45L509.86 184.69H468.05L472.36 140.73L512.87 142.45Z" fill="#E6E7E8"/>
    <path d="M506.84 151.29L509.86 184.69H465.25L459.87 147.19L481.2 146.12L483.35 151.5L506.84 151.29Z" fill="#6A4EE1"/>
    <path d="M521.69 230.58L515.65 230.37L513.72 262.69L521.69 230.58Z" fill="#232530"/>
    <path d="M516.73 220.45L513.72 262.69H471.91L476.22 218.73L516.73 220.45Z" fill="#E6E7E8"/>
    <path d="M510.7 229.29L513.72 262.69H469.11L463.72 225.19L485.06 224.12L487.21 229.5L510.7 229.29Z" fill="#6A4EE1"/>
    <path d="M489.62 187.62H488.62V191.12H489.62V187.62Z" fill="#232530"/>
    <path d="M489.62 197.08H488.62V203.03H489.62V197.08Z" fill="#232530"/>
    <path d="M489.62 208.98H488.62V212.48H489.62V208.98Z" fill="#232530"/>
</svg>
